<svg width="125" height="118" viewBox="0 0 125 118" fill="none" xmlns="http://www.w3.org/2000/svg">
<rect width="125" height="118" fill="white"/>
<path d="M62.616 103.776C55.7547 103.776 49.3893 102.66 43.52 100.428C37.7333 98.196 32.6907 95.0547 28.392 91.004C24.176 86.9533 20.8693 82.2 18.472 76.744C16.1573 71.288 15 65.336 15 58.888C15 52.44 16.1573 46.488 18.472 41.032C20.8693 35.576 24.2173 30.8227 28.516 26.772C32.8147 22.7213 37.8573 19.58 43.644 17.348C49.4307 15.116 55.7133 14 62.492 14C69.3533 14 75.636 15.116 81.34 17.348C87.1267 19.58 92.128 22.7213 96.344 26.772C100.643 30.8227 103.991 35.576 106.388 41.032C108.785 46.4053 109.984 52.3573 109.984 58.888C109.984 65.336 108.785 71.3293 106.388 76.868C103.991 82.324 100.643 87.0773 96.344 91.128C92.128 95.096 87.1267 98.196 81.34 100.428C75.636 102.66 69.3947 103.776 62.616 103.776ZM62.492 86.664C66.3773 86.664 69.932 86.0027 73.156 84.68C76.4627 83.3573 79.356 81.456 81.836 78.976C84.316 76.496 86.2173 73.5613 87.54 70.172C88.9453 66.7827 89.648 63.0213 89.648 58.888C89.648 54.7547 88.9453 50.9933 87.54 47.604C86.2173 44.2147 84.316 41.28 81.836 38.8C79.4387 36.32 76.5867 34.4187 73.28 33.096C69.9733 31.7733 66.3773 31.112 62.492 31.112C58.6067 31.112 55.0107 31.7733 51.704 33.096C48.48 34.4187 45.628 36.32 43.148 38.8C40.668 41.28 38.7253 44.2147 37.32 47.604C35.9973 50.9933 35.336 54.7547 35.336 58.888C35.336 62.9387 35.9973 66.7 37.32 70.172C38.7253 73.5613 40.6267 76.496 43.024 78.976C45.504 81.456 48.3973 83.3573 51.704 84.68C55.0107 86.0027 58.6067 86.664 62.492 86.664Z" fill="url(#paint0_linear_1957_137)"/>
<defs>
<linearGradient id="paint0_linear_1957_137" x1="62.492" y1="14" x2="62.492" y2="103.776" gradientUnits="userSpaceOnUse">
<stop stop-color="#F5940B"/>
<stop offset="0.645" stop-color="#F7A32E"/>
<stop offset="1" stop-color="#F2CC96"/>
</linearGradient>
</defs>
</svg>
