<svg width="303" height="118" viewBox="0 0 303 118" fill="none" xmlns="http://www.w3.org/2000/svg">
<g clip-path="url(#clip0_1945_133)">
<path d="M62.616 103.776C55.7547 103.776 49.3893 102.66 43.52 100.428C37.7333 98.196 32.6907 95.0547 28.392 91.004C24.176 86.9533 20.8693 82.2 18.472 76.744C16.1573 71.288 15 65.336 15 58.888C15 52.44 16.1573 46.488 18.472 41.032C20.8693 35.576 24.2173 30.8227 28.516 26.772C32.8147 22.7213 37.8573 19.58 43.644 17.348C49.4307 15.116 55.7133 14 62.492 14C69.3533 14 75.636 15.116 81.34 17.348C87.1267 19.58 92.128 22.7213 96.344 26.772C100.643 30.8227 103.991 35.576 106.388 41.032C108.785 46.4053 109.984 52.3573 109.984 58.888C109.984 65.336 108.785 71.3293 106.388 76.868C103.991 82.324 100.643 87.0773 96.344 91.128C92.128 95.096 87.1267 98.196 81.34 100.428C75.636 102.66 69.3947 103.776 62.616 103.776ZM62.492 86.664C66.3773 86.664 69.932 86.0027 73.156 84.68C76.4627 83.3573 79.356 81.456 81.836 78.976C84.316 76.496 86.2173 73.5613 87.54 70.172C88.9453 66.7827 89.648 63.0213 89.648 58.888C89.648 54.7547 88.9453 50.9933 87.54 47.604C86.2173 44.2147 84.316 41.28 81.836 38.8C79.4387 36.32 76.5867 34.4187 73.28 33.096C69.9733 31.7733 66.3773 31.112 62.492 31.112C58.6067 31.112 55.0107 31.7733 51.704 33.096C48.48 34.4187 45.628 36.32 43.148 38.8C40.668 41.28 38.7253 44.2147 37.32 47.604C35.9973 50.9933 35.336 54.7547 35.336 58.888C35.336 62.9387 35.9973 66.7 37.32 70.172C38.7253 73.5613 40.6267 76.496 43.024 78.976C45.504 81.456 48.3973 83.3573 51.704 84.68C55.0107 86.0027 58.6067 86.664 62.492 86.664Z" fill="url(#paint0_linear_1945_133)"/>
<path d="M254.392 105.024C246.541 105.024 239.629 103.488 233.656 100.416C227.768 97.344 223.203 93.1627 219.96 87.872C216.717 82.496 215.096 76.3947 215.096 69.568C215.096 62.656 216.675 56.5547 219.832 51.264C223.075 45.888 227.469 41.7067 233.016 38.72C238.563 35.648 244.835 34.112 251.832 34.112C258.573 34.112 264.632 35.5627 270.008 38.464C275.469 41.28 279.779 45.376 282.936 50.752C286.093 56.0427 287.672 62.4 287.672 69.824C287.672 70.592 287.629 71.488 287.544 72.512C287.459 73.4507 287.373 74.3467 287.288 75.2H231.352V63.552H276.792L269.112 67.008C269.112 63.424 268.387 60.3093 266.936 57.664C265.485 55.0187 263.48 52.9707 260.92 51.52C258.36 49.984 255.373 49.216 251.96 49.216C248.547 49.216 245.517 49.984 242.872 51.52C240.312 52.9707 238.307 55.0613 236.856 57.792C235.405 60.4373 234.68 63.5947 234.68 67.264V70.336C234.68 74.0907 235.491 77.4187 237.112 80.32C238.819 83.136 241.165 85.312 244.152 86.848C247.224 88.2987 250.808 89.024 254.904 89.024C258.573 89.024 261.773 88.4693 264.504 87.36C267.32 86.2507 269.88 84.5867 272.184 82.368L282.808 93.888C279.651 97.472 275.683 100.245 270.904 102.208C266.125 104.085 260.621 105.024 254.392 105.024Z" fill="black"/>
<path d="M96.184 104V31.296H67.512V14.4H145.592V31.296H116.92V104H96.184Z" fill="black"/>
<path d="M173.392 105.024C165.541 105.024 158.629 103.488 152.656 100.416C146.768 97.344 142.203 93.1627 138.96 87.872C135.717 82.496 134.096 76.3947 134.096 69.568C134.096 62.656 135.675 56.5547 138.832 51.264C142.075 45.888 146.469 41.7067 152.016 38.72C157.563 35.648 163.835 34.112 170.832 34.112C177.573 34.112 183.632 35.5627 189.008 38.464C194.469 41.28 198.779 45.376 201.936 50.752C205.093 56.0427 206.672 62.4 206.672 69.824C206.672 70.592 206.629 71.488 206.544 72.512C206.459 73.4507 206.373 74.3467 206.288 75.2H150.352V63.552H195.792L188.112 67.008C188.112 63.424 187.387 60.3093 185.936 57.664C184.485 55.0187 182.48 52.9707 179.92 51.52C177.36 49.984 174.373 49.216 170.96 49.216C167.547 49.216 164.517 49.984 161.872 51.52C159.312 52.9707 157.307 55.0613 155.856 57.792C154.405 60.4373 153.68 63.5947 153.68 67.264V70.336C153.68 74.0907 154.491 77.4187 156.112 80.32C157.819 83.136 160.165 85.312 163.152 86.848C166.224 88.2987 169.808 89.024 173.904 89.024C177.573 89.024 180.773 88.4693 183.504 87.36C186.32 86.2507 188.88 84.5867 191.184 82.368L201.808 93.888C198.651 97.472 194.683 100.245 189.904 102.208C185.125 104.085 179.621 105.024 173.392 105.024Z" fill="black"/>
</g>
<defs>
<linearGradient id="paint0_linear_1945_133" x1="62.492" y1="14" x2="62.492" y2="103.776" gradientUnits="userSpaceOnUse">
<stop stop-color="#F5940B"/>
<stop offset="0.645" stop-color="#F7A32E"/>
<stop offset="1" stop-color="#F2CC96"/>
</linearGradient>
<clipPath id="clip0_1945_133">
<rect width="303" height="118" fill="white"/>
</clipPath>
</defs>
</svg>
